<?xml version="1.0" encoding="UTF-8"?>
<svg width="160" height="160" viewBox="0 0 160 160" xmlns="http://www.w3.org/2000/svg">
  <rect width="160" height="160" rx="28" fill="#8B5CF6"/>
  <path d="M80 38 C80 38 52 58 52 80 C52 96 64 108 80 108 C96 108 108 96 108 80 C108 58 80 38 80 38Z" fill="white" opacity="0.15"/>
  <path d="M80 50 C80 50 60 65 60 80 C60 91 69 100 80 100 C91 100 100 91 100 80 C100 65 80 50 80 50Z" fill="none" stroke="white" stroke-width="2.5" opacity="0.5"/>
  <ellipse cx="72" cy="70" rx="6" ry="9" fill="white" opacity="0.8" transform="rotate(-15 72 70)"/>
  <ellipse cx="90" cy="68" rx="5" ry="8" fill="white" opacity="0.7" transform="rotate(10 90 68)"/>
  <ellipse cx="80" cy="88" rx="7" ry="5" fill="white" opacity="0.6" transform="rotate(5 80 88)"/>
  <circle cx="68" cy="58" r="3" fill="white" opacity="0.5"/>
  <circle cx="96" cy="78" r="2.5" fill="white" opacity="0.45"/>
  <text x="80" y="126" text-anchor="middle" font-family="system-ui, sans-serif" font-size="22" font-weight="700" fill="white">NO</text>
  <text x="107" y="132" text-anchor="middle" font-family="system-ui, sans-serif" font-size="14" font-weight="600" fill="white" opacity="0.9">2</text>
</svg>
